<svg xmlns="http://www.w3.org/2000/svg" xmlns:xlink="http://www.w3.org/1999/xlink" id="Calque_1" x="0" y="0" version="1.1" viewBox="0 0 184.7 135.7" style="enable-background:new 0 0 184.7 135.7" xml:space="preserve"><style type="text/css">.st0{fill:#333}.st1{fill:#f44}.st2{enable-background:new}</style><g><path d="M18.2,18.7v3v62.1v3h3h141.6h3v-3V18.7h-5.9l-0.1,62.1H24.2V24.7h115.3v-6H21.2H18.2z" class="st0"/><path d="M52.8,53.5c0-5.1-0.5-8.8-1.6-11c-1-2.2-2.8-3.3-5.2-3.3c-2.4,0-4.1,1.1-5.2,3.3c-1,2.2-1.6,5.9-1.6,11 c0,5.1,0.5,8.8,1.6,11c1.1,2.2,2.8,3.3,5.2,3.3c2.4,0,4.1-1.1,5.2-3.3C52.3,62.3,52.8,58.6,52.8,53.5 M57.8,53.5 c0,6.1-1,10.6-2.9,13.6c-1.9,3-4.9,4.5-8.8,4.5s-6.9-1.5-8.8-4.5s-2.9-7.5-2.9-13.7c0-6.1,1-10.7,2.9-13.7c1.9-3,4.9-4.5,8.8-4.5 c4,0,6.9,1.5,8.8,4.5C56.8,42.8,57.8,47.3,57.8,53.5" class="st0"/><path d="M84.2,37.1v4.8c-1.4-0.9-2.9-1.6-4.3-2.1c-1.4-0.5-2.9-0.7-4.4-0.7c-2.2,0-4,0.5-5.3,1.6 c-1.3,1-1.9,2.4-1.9,4.2c0,1.5,0.4,2.7,1.3,3.5c0.9,0.8,2.5,1.5,4.8,2l2.5,0.6c3.3,0.8,5.7,2,7.2,3.6c1.5,1.6,2.3,3.9,2.3,6.7 c0,3.3-1,5.9-3.1,7.6s-5.1,2.6-9,2.6c-1.6,0-3.3-0.2-4.9-0.5c-1.7-0.3-3.3-0.9-5-1.6v-5c1.8,1.1,3.5,2,5.1,2.5 c1.6,0.5,3.2,0.8,4.9,0.8c2.4,0,4.3-0.5,5.6-1.6c1.3-1.1,2-2.6,2-4.5c0-1.8-0.5-3.1-1.4-4c-0.9-0.9-2.5-1.6-4.8-2.1L73,54.9 c-3.3-0.7-5.6-1.8-7.1-3.3c-1.5-1.5-2.2-3.5-2.2-6c0-3.1,1-5.6,3.1-7.5c2.1-1.9,4.9-2.8,8.4-2.8c1.3,0,2.8,0.2,4.2,0.5 C81,36.1,82.6,36.5,84.2,37.1" class="st0"/><path d="M92.6,35.9h4.8v14.3h13V35.9h4.8v35h-4.8V54.3h-13v16.7h-4.8V35.9" class="st0"/></g><path d="M118.3,35.9h4.6l3.4,28.4l4-18.8h4.9l4,18.8l11.4-54.5h4.6l-13.2,61h-4.5l-4.8-20.8L128,70.9h-4.5L118.3,35.9" class="st1"/><g class="st2"><path d="M20.2,122.4V98.7h8.4c1.2,0,2.3,0.2,3.3,0.7c1,0.5,1.8,1.2,2.4,2.1c0.6,0.9,0.9,2,0.9,3.3 c0,0.6-0.1,1.2-0.3,1.9c-0.2,0.6-0.5,1.1-0.9,1.6c-0.4,0.5-0.8,0.8-1.4,1c0.7,0.2,1.3,0.5,1.8,1s0.9,1,1.1,1.6 c0.3,0.6,0.5,1.3,0.6,1.9c0.1,0.7,0.2,1.3,0.2,1.9c0,1.3-0.3,2.4-0.9,3.4s-1.4,1.8-2.4,2.3c-1,0.6-2.1,0.9-3.4,0.9H20.2z M23.8,108.1h4.5c0.9,0,1.7-0.3,2.4-0.8s1-1.3,1-2.3c0-1-0.3-1.8-1-2.4c-0.7-0.5-1.5-0.8-2.4-0.8h-4.5V108.1z M23.8,119.3h5.5 c0.7,0,1.4-0.2,2-0.5c0.6-0.4,1.1-0.9,1.4-1.5c0.3-0.6,0.5-1.4,0.5-2.2c0-0.7-0.2-1.4-0.5-2c-0.3-0.6-0.8-1.1-1.4-1.5 c-0.6-0.4-1.2-0.6-2-0.6h-5.5V119.3z" class="st0"/><path d="M39.2,122.4V98.7h14.7v3.5H42.8v5.7h9v3.5h-9v7.4h11.2v3.5H39.2z" class="st0"/><path d="M65.8,122.8c-1.4,0-2.7-0.3-3.8-1c-1.1-0.6-2.1-1.5-2.9-2.6c-0.8-1.1-1.4-2.4-1.9-3.9 c-0.4-1.5-0.6-3.1-0.6-4.8s0.2-3.3,0.6-4.8c0.4-1.5,1-2.8,1.9-3.9c0.8-1.1,1.8-2,2.9-2.6c1.1-0.6,2.4-1,3.8-1c1.4,0,2.6,0.3,3.8,1 c1.1,0.6,2.1,1.5,2.9,2.6c0.8,1.1,1.4,2.4,1.8,3.9c0.4,1.5,0.6,3.1,0.6,4.8s-0.2,3.3-0.6,4.8c-0.4,1.5-1,2.8-1.8,3.9 c-0.8,1.1-1.8,2-2.9,2.6C68.4,122.5,67.2,122.8,65.8,122.8z M65.8,119.3c1.3,0,2.4-0.4,3.2-1.2c0.9-0.8,1.5-1.9,1.9-3.2 c0.4-1.3,0.6-2.8,0.6-4.3c0-1.6-0.2-3.1-0.7-4.4c-0.4-1.3-1.1-2.4-2-3.2c-0.9-0.8-1.9-1.2-3.2-1.2c-1,0-1.9,0.2-2.6,0.7 c-0.7,0.5-1.3,1.1-1.8,1.9s-0.8,1.8-1.1,2.8c-0.2,1-0.4,2.1-0.4,3.3c0,1.5,0.2,3,0.7,4.3c0.4,1.3,1.1,2.4,2,3.2 C63.4,118.9,64.5,119.3,65.8,119.3z" class="st0"/><path d="M85.5,122.8c-1.4,0-2.7-0.3-3.8-1c-1.1-0.6-2.1-1.5-2.9-2.6c-0.8-1.1-1.4-2.4-1.9-3.9 c-0.4-1.5-0.6-3.1-0.6-4.8s0.2-3.3,0.6-4.8c0.4-1.5,1-2.8,1.9-3.9c0.8-1.1,1.8-2,2.9-2.6c1.1-0.6,2.4-1,3.8-1c1.4,0,2.6,0.3,3.8,1 c1.1,0.6,2.1,1.5,2.9,2.6c0.8,1.1,1.4,2.4,1.8,3.9c0.4,1.5,0.6,3.1,0.6,4.8s-0.2,3.3-0.6,4.8c-0.4,1.5-1,2.8-1.8,3.9 c-0.8,1.1-1.8,2-2.9,2.6C88.1,122.5,86.9,122.8,85.5,122.8z M85.5,119.3c1.3,0,2.4-0.4,3.2-1.2c0.9-0.8,1.5-1.9,1.9-3.2 c0.4-1.3,0.6-2.8,0.6-4.3c0-1.6-0.2-3.1-0.7-4.4c-0.4-1.3-1.1-2.4-2-3.2c-0.9-0.8-1.9-1.2-3.2-1.2c-1,0-1.9,0.2-2.6,0.7 c-0.7,0.5-1.3,1.1-1.8,1.9s-0.8,1.8-1.1,2.8c-0.2,1-0.4,2.1-0.4,3.3c0,1.5,0.2,3,0.7,4.3c0.4,1.3,1.1,2.4,2,3.2 C83.1,118.9,84.2,119.3,85.5,119.3z" class="st0"/><path d="M105.2,122.8c-1.4,0-2.7-0.3-3.8-1c-1.1-0.6-2.1-1.5-2.9-2.6s-1.4-2.4-1.9-3.9c-0.4-1.5-0.6-3.1-0.6-4.8 s0.2-3.3,0.6-4.8s1-2.8,1.9-3.9s1.8-2,2.9-2.6c1.1-0.6,2.4-1,3.8-1c1.4,0,2.6,0.3,3.8,1c1.1,0.6,2.1,1.5,2.9,2.6s1.4,2.4,1.8,3.9 s0.6,3.1,0.6,4.8s-0.2,3.3-0.6,4.8c-0.4,1.5-1,2.8-1.8,3.9s-1.8,2-2.9,2.6C107.8,122.5,106.6,122.8,105.2,122.8z M105.2,119.3 c1.3,0,2.4-0.4,3.2-1.2c0.9-0.8,1.5-1.9,1.9-3.2c0.4-1.3,0.6-2.8,0.6-4.3c0-1.6-0.2-3.1-0.7-4.4c-0.4-1.3-1.1-2.4-2-3.2 s-1.9-1.2-3.2-1.2c-1,0-1.9,0.2-2.6,0.7s-1.3,1.1-1.8,1.9s-0.8,1.8-1.1,2.8c-0.2,1-0.4,2.1-0.4,3.3c0,1.5,0.2,3,0.7,4.3 c0.4,1.3,1.1,2.4,2,3.2C102.8,118.9,103.9,119.3,105.2,119.3z" class="st0"/><path d="M124.9,122.8c-1.4,0-2.7-0.3-3.8-1c-1.1-0.6-2.1-1.5-2.9-2.6s-1.4-2.4-1.9-3.9c-0.4-1.5-0.6-3.1-0.6-4.8 s0.2-3.3,0.6-4.8s1-2.8,1.9-3.9s1.8-2,2.9-2.6c1.1-0.6,2.4-1,3.8-1c1.4,0,2.6,0.3,3.8,1c1.1,0.6,2.1,1.5,2.9,2.6s1.4,2.4,1.8,3.9 s0.6,3.1,0.6,4.8s-0.2,3.3-0.6,4.8c-0.4,1.5-1,2.8-1.8,3.9s-1.8,2-2.9,2.6C127.5,122.5,126.3,122.8,124.9,122.8z M124.9,119.3 c1.3,0,2.4-0.4,3.2-1.2c0.9-0.8,1.5-1.9,1.9-3.2c0.4-1.3,0.6-2.8,0.6-4.3c0-1.6-0.2-3.1-0.7-4.4c-0.4-1.3-1.1-2.4-2-3.2 s-1.9-1.2-3.2-1.2c-1,0-1.9,0.2-2.6,0.7s-1.3,1.1-1.8,1.9s-0.8,1.8-1.1,2.8c-0.2,1-0.4,2.1-0.4,3.3c0,1.5,0.2,3,0.7,4.3 c0.4,1.3,1.1,2.4,2,3.2C122.5,118.9,123.6,119.3,124.9,119.3z" class="st0"/><path d="M139.2,122.4v-20.1h-2.8l1-3.5h5.4v23.6H139.2z" class="st0"/><path d="M155.6,122.8c-1.4,0-2.7-0.3-3.8-1c-1.1-0.6-2.1-1.5-2.9-2.6s-1.4-2.4-1.9-3.9c-0.4-1.5-0.6-3.1-0.6-4.8 s0.2-3.3,0.6-4.8s1-2.8,1.9-3.9s1.8-2,2.9-2.6c1.1-0.6,2.4-1,3.8-1c1.4,0,2.6,0.3,3.8,1c1.1,0.6,2.1,1.5,2.9,2.6s1.4,2.4,1.8,3.9 s0.6,3.1,0.6,4.8s-0.2,3.3-0.6,4.8c-0.4,1.5-1,2.8-1.8,3.9s-1.8,2-2.9,2.6C158.3,122.5,157,122.8,155.6,122.8z M155.6,119.3 c1.3,0,2.4-0.4,3.2-1.2c0.9-0.8,1.5-1.9,1.9-3.2c0.4-1.3,0.6-2.8,0.6-4.3c0-1.6-0.2-3.1-0.7-4.4c-0.4-1.3-1.1-2.4-2-3.2 s-1.9-1.2-3.2-1.2c-1,0-1.9,0.2-2.6,0.7s-1.3,1.1-1.8,1.9s-0.8,1.8-1.1,2.8c-0.2,1-0.4,2.1-0.4,3.3c0,1.5,0.2,3,0.7,4.3 c0.4,1.3,1.1,2.4,2,3.2C153.3,118.9,154.3,119.3,155.6,119.3z" class="st0"/></g></svg>