<?xml version="1.0" standalone="no"?>
<!DOCTYPE svg PUBLIC "-//W3C//DTD SVG 20010904//EN"
 "http://www.w3.org/TR/2001/REC-SVG-20010904/DTD/svg10.dtd">
<svg version="1.0" xmlns="http://www.w3.org/2000/svg"
 width="2939.000000pt" height="2939.000000pt" viewBox="0 0 2939.000000 2939.000000"
 preserveAspectRatio="xMidYMid meet">
<metadata>
Created by potrace 1.14, written by Peter Selinger 2001-2017
</metadata>
<g transform="translate(0.000000,2939.000000) scale(0.100000,-0.100000)"
fill="#000000" stroke="none">
<path d="M4139 27176 c-2 -2 -42 -7 -88 -10 -47 -4 -87 -9 -90 -10 -3 -2 -35
-7 -70 -10 -36 -4 -67 -9 -70 -11 -4 -2 -25 -6 -47 -9 -56 -9 -69 -12 -159
-35 -607 -155 -1011 -502 -1229 -1054 -40 -101 -94 -287 -111 -377 -21 -119
-45 -293 -52 -375 -17 -215 -8 -1564 11 -1695 2 -14 7 -52 11 -85 4 -33 9 -69
11 -80 3 -11 7 -36 10 -55 3 -19 19 -90 35 -157 98 -404 281 -713 574 -968 85
-74 274 -187 428 -255 160 -70 461 -147 652 -166 28 -3 64 -7 82 -9 89 -13
308 -17 923 -20 371 -1 686 -5 700 -8 14 -3 50 -8 80 -11 64 -6 226 -34 255
-43 11 -4 25 -8 30 -9 40 -8 144 -42 215 -71 510 -209 786 -625 857 -1293 10
-95 11 -1407 1 -1515 -10 -104 -24 -206 -33 -235 -3 -8 -7 -31 -9 -50 -15
-110 -103 -348 -176 -475 -87 -152 -173 -251 -331 -380 -87 -70 -255 -156
-412 -209 -80 -27 -282 -72 -367 -82 -30 -3 -66 -8 -80 -11 -14 -3 -297 -7
-630 -9 -584 -3 -921 -9 -1005 -19 -151 -17 -151 -17 -235 -31 -707 -122
-1190 -485 -1424 -1072 -95 -236 -149 -489 -173 -802 -17 -217 -8 -1561 11
-1680 3 -14 7 -47 10 -75 40 -355 173 -711 363 -978 78 -109 238 -267 354
-349 194 -138 493 -266 732 -314 128 -25 233 -42 316 -50 31 -3 74 -8 96 -10
22 -3 341 -7 710 -9 607 -3 833 -8 905 -19 14 -3 49 -7 78 -10 42 -5 150 -27
247 -50 96 -24 273 -96 368 -151 76 -44 101 -59 107 -65 3 -3 23 -18 45 -34
72 -53 202 -193 265 -287 107 -161 182 -344 225 -557 48 -230 50 -279 50
-1032 0 -763 -3 -823 -56 -1065 -71 -324 -235 -604 -464 -795 -161 -134 -404
-241 -670 -295 -209 -42 -290 -46 -1095 -50 -371 -1 -702 -6 -735 -9 -290 -33
-448 -66 -644 -132 -534 -180 -892 -534 -1081 -1069 -67 -192 -115 -432 -137
-695 -17 -198 -7 -1599 12 -1699 1 -9 6 -38 9 -66 35 -268 123 -564 228 -762
36 -68 145 -237 177 -273 12 -14 45 -52 74 -84 129 -147 349 -300 569 -396 78
-34 255 -94 313 -106 6 -1 39 -9 75 -17 126 -30 277 -51 450 -65 222 -17 1574
-7 1690 12 14 3 46 7 72 10 199 26 446 90 606 158 278 119 457 249 657 478 90
104 208 314 276 488 66 173 131 452 144 628 4 43 9 86 12 94 3 8 7 319 9 690
3 831 6 906 50 1130 106 540 405 907 874 1075 88 31 248 74 305 81 22 3 46 7
53 9 7 3 40 7 75 11 34 3 73 8 87 11 14 3 320 6 681 8 580 2 855 8 954 20 17
2 53 6 81 10 29 3 61 7 72 10 11 2 37 6 58 9 136 21 350 79 477 130 290 117
511 276 689 494 178 218 327 551 382 853 1 8 5 28 9 44 4 17 9 48 12 70 3 22
7 51 10 65 2 14 6 52 9 85 4 33 9 83 12 110 3 28 7 363 9 745 3 624 5 738 20
876 9 91 35 222 60 314 134 477 397 771 840 939 70 26 209 66 270 76 263 46
291 47 1005 47 552 0 717 -3 830 -17 19 -3 55 -7 80 -10 114 -14 293 -60 411
-106 386 -149 655 -435 785 -838 28 -85 44 -146 50 -181 3 -14 7 -38 11 -55 4
-16 7 -32 8 -35 1 -3 5 -32 9 -65 4 -32 10 -68 12 -80 9 -43 15 -373 19 -975
2 -344 6 -638 8 -655 2 -16 7 -57 11 -90 7 -57 29 -204 41 -270 41 -217 150
-501 258 -674 86 -138 207 -279 337 -391 145 -126 443 -281 647 -336 32 -8 81
-22 110 -29 56 -15 65 -17 193 -40 239 -42 348 -46 1150 -51 371 -2 693 -6
714 -8 173 -23 214 -30 341 -62 202 -51 394 -141 540 -254 61 -47 190 -182
238 -248 122 -170 219 -406 262 -640 3 -15 7 -36 9 -47 2 -11 7 -51 11 -90 4
-38 10 -79 12 -90 3 -11 7 -317 8 -680 3 -603 8 -869 20 -950 2 -16 7 -52 10
-80 38 -343 148 -671 310 -926 175 -276 436 -490 770 -631 34 -14 145 -52 260
-88 93 -29 330 -68 530 -87 101 -10 1458 -10 1585 -1 83 7 214 22 260 32 8 1
38 6 65 10 120 18 354 84 461 131 307 131 518 289 699 520 52 67 185 281 185
299 0 3 13 33 29 68 27 58 78 192 86 228 2 8 16 60 30 115 28 108 55 263 69
395 26 241 27 1541 2 1745 -2 17 -7 59 -11 95 -4 36 -8 72 -10 80 -1 8 -6 35
-10 60 -4 25 -11 61 -15 80 -5 19 -14 58 -21 85 -6 28 -21 82 -32 120 -11 39
-21 75 -23 80 -6 27 -69 176 -109 256 -157 315 -395 557 -709 719 -154 79
-341 147 -485 176 -12 3 -51 11 -85 19 -78 18 -148 28 -266 40 -36 4 -81 9
-100 12 -19 2 -341 6 -715 8 -862 4 -950 10 -1202 74 -493 126 -828 434 -978
897 -33 101 -69 250 -80 334 -3 25 -7 61 -10 80 -13 104 -16 251 -17 815 0
640 3 730 28 900 73 498 291 858 646 1068 123 74 324 154 430 172 17 3 34 8
38 10 19 12 248 43 370 51 58 3 409 8 780 9 371 2 691 6 710 8 19 3 64 8 100
11 203 20 425 70 590 131 25 9 59 20 75 25 34 11 287 137 295 148 3 4 31 24
62 45 61 39 177 134 216 177 13 14 43 45 66 70 76 82 200 267 248 370 73 157
95 216 136 365 34 120 68 292 78 395 3 36 8 67 10 71 23 41 23 1602 0 1749 -3
14 -7 52 -11 84 -37 344 -158 692 -326 944 -201 300 -501 525 -860 645 -84 28
-177 57 -199 61 -8 2 -26 6 -40 9 -14 4 -36 9 -50 11 -14 2 -36 7 -50 10 -35
8 -73 14 -165 26 -44 6 -96 13 -115 15 -64 9 -467 16 -1035 19 -308 2 -582 6
-610 10 -263 32 -466 86 -641 172 -152 75 -236 135 -359 259 -150 151 -265
357 -334 600 -37 131 -60 266 -76 450 -8 90 -8 1329 0 1415 14 154 35 289 61
395 105 422 333 725 680 902 132 68 305 128 424 148 19 3 42 8 50 10 21 6 65
13 135 21 33 4 74 9 90 11 17 2 343 6 725 7 382 2 729 6 770 10 177 14 211 18
325 37 531 88 931 303 1197 643 27 34 52 66 57 73 80 96 238 445 276 608 2 11
13 58 24 105 11 47 27 135 36 195 9 61 18 124 20 140 26 178 25 1552 0 1762
-5 40 -24 180 -31 223 -6 43 -52 232 -72 301 -45 152 -132 342 -219 478 -160
250 -403 459 -691 593 -80 37 -291 114 -336 122 -11 2 -39 9 -61 14 -22 6 -56
14 -75 17 -19 3 -42 8 -50 10 -8 2 -33 7 -55 10 -23 3 -52 8 -65 11 -26 5 -43
7 -165 21 -92 10 -1596 10 -1700 0 -143 -15 -278 -36 -395 -64 -36 -8 -72 -16
-80 -18 -8 -2 -53 -15 -100 -30 -650 -206 -1054 -665 -1203 -1370 -9 -38 -18
-88 -21 -110 -4 -22 -11 -65 -16 -95 -26 -156 -32 -318 -35 -1045 -2 -368 -6
-688 -9 -710 -2 -22 -7 -60 -10 -85 -22 -192 -83 -412 -156 -565 -198 -412
-547 -657 -1065 -750 -78 -14 -106 -17 -250 -31 -38 -4 -385 -8 -770 -10 -385
-1 -720 -5 -745 -8 -25 -3 -83 -10 -130 -16 -47 -5 -94 -12 -105 -14 -11 -2
-42 -7 -70 -11 -27 -5 -52 -9 -55 -10 -3 -1 -32 -7 -65 -14 -240 -51 -539
-178 -698 -295 -283 -210 -467 -450 -592 -775 -29 -75 -78 -229 -90 -281 -2
-8 -6 -26 -9 -40 -3 -14 -8 -37 -10 -53 -3 -15 -10 -54 -16 -87 -18 -102 -19
-112 -26 -179 -4 -36 -8 -79 -11 -96 -2 -16 -6 -275 -8 -575 -3 -300 -5 -635
-6 -745 -3 -239 -12 -345 -45 -500 -8 -38 -17 -81 -20 -95 -13 -68 -71 -227
-120 -328 -56 -114 -140 -236 -223 -325 -60 -64 -187 -163 -278 -216 -112 -65
-301 -140 -393 -157 -14 -3 -38 -9 -55 -14 -38 -12 -206 -38 -310 -48 -107
-10 -1419 -9 -1520 1 -81 8 -179 22 -225 31 -14 3 -36 8 -50 11 -14 2 -38 7
-55 11 -59 11 -241 76 -321 113 -247 116 -470 331 -588 568 -65 130 -132 321
-151 433 -2 14 -7 41 -10 60 -3 19 -7 46 -10 60 -2 14 -7 48 -10 75 -2 28 -8
75 -11 105 -3 30 -8 377 -10 770 -2 393 -5 729 -7 745 -2 17 -7 62 -11 100
-32 310 -125 638 -247 864 -135 252 -336 469 -565 610 -112 69 -398 198 -472
212 -11 2 -23 5 -67 18 -57 16 -212 49 -265 56 -25 3 -56 8 -70 10 -14 2 -54
7 -89 11 -35 3 -82 8 -105 11 -23 2 -351 6 -731 7 -379 2 -724 6 -765 10 -123
11 -143 13 -195 21 -411 56 -747 230 -967 500 -126 155 -251 429 -283 625 -3
19 -10 51 -15 70 -5 19 -12 60 -15 90 -4 30 -8 69 -10 85 -12 86 -17 342 -20
925 -2 355 -6 670 -9 700 -3 30 -9 75 -12 100 -3 25 -7 60 -9 79 -14 118 -60
314 -107 456 -135 406 -386 729 -720 926 -179 106 -385 186 -601 235 -58 13
-248 45 -297 50 -30 3 -66 8 -80 12 -27 6 -1614 14 -1621 8z"/>
</g>
</svg>
