<?xml version="1.0" standalone="no"?>
<!DOCTYPE svg PUBLIC "-//W3C//DTD SVG 20010904//EN"
 "http://www.w3.org/TR/2001/REC-SVG-20010904/DTD/svg10.dtd">
<svg version="1.0" xmlns="http://www.w3.org/2000/svg"
 width="413.000000pt" height="413.000000pt" viewBox="0 0 413.000000 413.000000"
 preserveAspectRatio="xMidYMid meet">
<metadata>
Created by potrace 1.14, written by Peter Selinger 2001-2017
</metadata>
<g transform="translate(0.000000,413.000000) scale(0.100000,-0.100000)"
fill="#000000" stroke="none">
<path d="M1964 4075 c-245 -54 -474 -250 -545 -466 -31 -94 -34 -277 -7 -376
54 -194 309 -613 474 -779 125 -124 212 -124 346 3 182 173 446 582 484 750 3
16 8 82 10 148 4 147 -11 227 -69 345 -121 247 -455 428 -693 375z m232 -144
c45 -15 114 -49 153 -75 173 -115 261 -284 256 -491 -4 -118 -12 -149 -72
-269 -116 -234 -343 -535 -452 -599 -27 -16 -29 -16 -69 14 -87 64 -261 310
-389 549 -128 241 -141 415 -46 595 80 151 323 304 483 305 35 0 85 -11 136
-29z"/>
<path d="M720 3034 c-131 -39 -203 -176 -195 -369 8 -191 117 -337 330 -440
97 -47 228 -89 314 -100 30 -4 63 -9 75 -11 79 -16 412 -25 486 -12 90 15 120
46 120 123 0 87 -58 183 -193 318 -216 215 -505 417 -686 477 -79 26 -190 33
-251 14z m228 -140 c120 -44 242 -121 418 -262 188 -150 345 -322 356 -387 3
-19 -3 -20 -172 -20 -311 0 -465 28 -650 118 -165 81 -253 202 -251 347 2 117
25 174 84 211 43 26 132 24 215 -7z"/>
<path d="M3194 3030 c-134 -34 -308 -137 -515 -304 -264 -212 -403 -387 -401
-504 3 -103 54 -126 287 -126 112 0 322 11 335 19 3 1 28 5 56 9 77 9 219 53
309 95 158 75 267 181 316 309 18 46 22 77 22 162 -1 58 -3 112 -5 120 -3 8
-9 29 -13 45 -19 70 -83 141 -154 171 -54 23 -155 25 -237 4z m214 -137 c49
-37 64 -76 70 -178 3 -76 1 -99 -18 -148 -64 -168 -307 -299 -620 -332 -25 -2
-67 -7 -95 -10 -74 -8 -286 -8 -317 0 -31 8 -30 16 18 91 81 129 404 407 596
512 92 51 176 83 242 91 64 9 83 4 124 -26z"/>
<path d="M1517 2034 c-1 -1 -51 -4 -112 -8 -244 -15 -410 -53 -558 -127 -212
-107 -315 -250 -322 -446 -13 -354 238 -474 594 -282 287 155 651 486 720 656
18 44 16 116 -4 147 -24 36 -97 55 -218 58 -54 2 -99 2 -100 2z m208 -136 c17
-17 -58 -121 -160 -224 -261 -264 -563 -457 -730 -469 -101 -6 -160 43 -180
150 -30 165 31 295 185 394 119 77 266 121 485 144 123 14 389 17 400 5z"/>
<path d="M2429 2027 c-30 -4 -68 -12 -86 -18 -85 -27 -87 -141 -5 -269 43 -66
218 -243 322 -325 41 -33 77 -63 80 -66 16 -21 248 -168 315 -200 223 -107
404 -89 494 48 32 48 49 111 57 211 11 129 -39 262 -134 356 -88 87 -181 141
-327 190 -119 40 -210 57 -400 72 -120 9 -256 10 -316 1z m376 -132 c48 -5
171 -24 208 -31 33 -6 172 -56 212 -76 191 -97 276 -233 253 -406 -21 -152
-90 -201 -236 -167 -174 41 -479 249 -699 479 -69 71 -143 173 -143 198 0 4
15 8 33 11 46 5 312 0 372 -8z"/>
<path d="M1985 1748 c-100 -52 -296 -288 -439 -527 -133 -223 -156 -299 -153
-496 2 -102 7 -133 31 -203 67 -198 227 -357 438 -436 168 -63 290 -55 459 29
174 87 293 204 362 355 49 109 60 267 27 408 -46 194 -302 624 -473 795 -99
97 -169 118 -252 75z m175 -179 c105 -107 257 -339 358 -544 68 -138 82 -186
86 -296 8 -203 -115 -389 -325 -492 -164 -80 -241 -86 -387 -28 -273 108 -410
350 -370 652 24 174 348 661 513 769 36 24 51 17 125 -61z"/>
</g>
</svg>
