<svg xmlns="http://www.w3.org/2000/svg" viewBox="0 0 74.1123 97.1105"><defs><style>.cls-1{fill:none;stroke:#000;stroke-miterlimit:10;stroke-width:3px;}</style></defs><title>Quanta-logo</title><g id="Calque_2" data-name="Calque 2"><g id="Calque_2-2" data-name="Calque 2"><path class="cls-1" d="M51.2032,20.75C53.87,5.8333,40.6024,1.5,36.8146,1.5S19.0366,7,23.0366,20.75C24.1948,24.7314,33.0268,40,36.8146,40S50.4735,24.8317,51.2032,20.75Z"/><path class="cls-1" d="M60.61,45.1667C73.6929,41.625,73.1128,34.0494,72.1929,30.375s-5.375-7.25-17.25,1.75c-3.3046,2.5045-12.4315,9.7889-11.192,13.3681C44.3179,47.1305,56.6072,46.25,60.61,45.1667Z"/><path class="cls-1" d="M60.61,52.0418C73.6929,55.5834,73.1128,63.159,72.1929,66.8334s-5.375,7.25-17.25-1.75c-3.3046-2.5045-12.4315-9.7889-11.192-13.3681C44.3179,50.0779,56.6072,50.9583,60.61,52.0418Z"/><path class="cls-1" d="M13.5028,45.1667C.4195,41.625,1,34.0494,1.9195,30.375s5.375-7.25,17.25,1.75C22.474,34.63,31.601,41.9139,30.3615,45.4931,29.7945,47.1305,17.5051,46.25,13.5028,45.1667Z"/><path class="cls-1" d="M13.5028,52.0418C.4195,55.5834,1,63.159,1.9195,66.8334s5.375,7.25,17.25-1.75c3.3046-2.5045,12.4315-9.7889,11.192-13.3681C29.7945,50.0779,17.5051,50.9583,13.5028,52.0418Z"/><path class="cls-1" d="M22.676,76.36C20.0093,91.2771,33.2768,95.61,37.0646,95.61s17.778-5.5,13.778-19.25c-1.1582-3.9814-9.99-19.25-13.778-19.25S23.4056,72.2788,22.676,76.36Z"/></g></g></svg>