<svg id="Calque_2" data-name="Calque 2" xmlns="http://www.w3.org/2000/svg" viewBox="0 0 1878.7264 586.5491"><defs><style>.cls-1{fill:none;stroke:#000;stroke-miterlimit:10;stroke-width:18px;}</style></defs><title>Quanta-logotext</title><path class="cls-1" d="M368.51,226.802c16.11-90.116-64.0426-116.2949-86.926-116.2949S174.182,143.7342,198.3472,226.802c6.9971,24.0526,60.3539,116.2949,83.2372,116.2949S364.102,251.4608,368.51,226.802Z" transform="translate(-59.2384 -101.5071)"/><path class="cls-1" d="M425.3365,374.31c79.04-21.3963,75.5358-67.1626,69.9783-89.3608s-32.472-43.7994-104.2123,10.5723c-19.9639,15.13-75.1025,59.1374-67.6144,80.7608C326.9138,386.1746,401.1571,380.8557,425.3365,374.31Z" transform="translate(-59.2384 -101.5071)"/><path class="cls-1" d="M425.3365,415.8448c79.04,21.3963,75.5358,67.1626,69.9783,89.3608s-32.472,43.7994-104.2123-10.5723c-19.9639-15.13-75.1025-59.1374-67.6144-80.7608C326.9138,403.9806,401.1571,409.2994,425.3365,415.8448Z" transform="translate(-59.2384 -101.5071)"/><path class="cls-1" d="M140.7508,374.31C61.71,352.914,65.215,307.1477,70.7724,284.9495s32.472-43.7994,104.2123,10.5723c19.9639,15.13,75.1025,59.1374,67.6144,80.7608C239.1735,386.1746,164.93,380.8557,140.7508,374.31Z" transform="translate(-59.2384 -101.5071)"/><path class="cls-1" d="M140.7508,415.8448c-79.04,21.3963-75.5358,67.1626-69.9783,89.3608s32.472,43.7994,104.2123-10.5723c19.9639-15.13,75.1025-59.1374,67.6144-80.7608C239.1735,403.9806,164.93,409.2994,140.7508,415.8448Z" transform="translate(-59.2384 -101.5071)"/><path class="cls-1" d="M196.1686,562.7612c-16.11,90.116,64.0426,116.2949,86.926,116.2949s107.4024-33.2271,83.2372-116.2949c-6.9971-24.0526-60.3539-116.2949-83.2372-116.2949S200.5769,538.1025,196.1686,562.7612Z" transform="translate(-59.2384 -101.5071)"/><path d="M892.96,378.1509q0,54.6658-19.8149,92.063-19.8171,37.4033-57.6885,52.6074l68.3281,77.4727H820.9229l-53.8813-67.4033h-7.6138q-64.62,0-99.271-40.3809-34.6553-40.38-34.6519-114.77,0-74.3884,34.8472-114.2563,34.8472-39.865,99.4658-39.8667,63.6416,0,98.3926,40.4829Q892.9573,304.5857,892.96,378.1509Zm-217.8687,0q0,55.4846,21.2793,84.1509,21.2761,28.667,63.0571,28.667,41.5825,0,62.7642-28.3584t21.1816-84.4595q0-55.2773-20.9868-83.8428-20.9875-28.5615-62.5688-28.5645-41.9758,0-63.35,28.5645Q675.0911,322.8733,675.0913,378.1509Z" transform="translate(-59.2384 -101.5071)"/><path d="M1082.4619,528.78l-6.4424-29.7969h-2.3428a66.22,66.22,0,0,1-27.2334,24.8652q-17.67,9.04-40.3135,9.042-39.24,0-58.5669-20.55-19.3271-20.5474-19.3271-62.2656V301.5h46.2676V441.6494q0,26.1006,10.1519,39.1475,10.1484,13.0518,31.8213,13.0488,28.89,0,42.4609-18.1865,13.5659-18.186,13.5684-60.93V301.5h46.0723V528.78Z" transform="translate(-59.2384 -101.5071)"/><path d="M1299.8809,528.78l-9.1758-31.6465h-1.5615q-15.6211,20.7583-31.4307,28.2559-15.813,7.4985-40.6064,7.501-31.8223,0-49.6846-18.084-17.8623-18.0806-17.8623-51.1689,0-35.14,24.793-53.0186,24.791-17.8777,75.5518-19.522l37.2871-1.2329V377.74q0-21.7793-9.6631-32.5713-9.6636-10.7886-29.9668-10.7886a98.9142,98.9142,0,0,0-31.8213,5.1377,233.5611,233.5611,0,0,0-29.2842,12.124l-14.8369-34.5234a154.7192,154.7192,0,0,1,38.459-14.6929,168.6187,168.6187,0,0,1,39.4355-5.0352q41.1885,0,62.1777,18.9063,20.9839,18.9089,20.9873,59.3887V528.78Zm-68.3281-32.88q24.9873,0,40.1182-14.6924,15.1274-14.6895,15.13-41.2021V420.2773l-27.7217,1.2334q-32.4082,1.2334-47.1465,11.4053-14.7422,10.1719-14.7393,31.1328,0,15.2095,8.59,23.5293Q1214.3716,495.9,1231.5527,495.9Z" transform="translate(-59.2384 -101.5071)"/><path d="M1567.4717,528.78h-46.0723V389.0425q0-26.302-10.0537-39.25-10.0576-12.9463-31.9189-12.9468-29.0918,0-42.5586,18.084-13.4707,18.0857-13.4707,60.6221V528.78h-45.877V301.5h35.9209l6.4424,29.7969h2.3428a64.9363,64.9363,0,0,1,27.7207-25.0708,89.0059,89.0059,0,0,1,39.8262-8.8364q77.6968,0,77.6982,83.2266Z" transform="translate(-59.2384 -101.5071)"/><path d="M1692.5508,493.8457a106.471,106.471,0,0,0,33.5781-5.5488V524.67a89.0811,89.0811,0,0,1-19.62,5.8574,128.784,128.784,0,0,1-24.8906,2.3633q-65.2061,0-65.2041-72.335V338.0791h-29.4795V316.707l31.627-17.6729,15.6172-48.0864h28.3076V301.5h61.4951v36.5786h-61.4951V459.7334q0,17.4683,8.2969,25.79T1692.5508,493.8457Z" transform="translate(-59.2384 -101.5071)"/><path d="M1905.167,528.78l-9.1758-31.6465H1894.43q-15.6211,20.7583-31.4307,28.2559-15.813,7.4985-40.6064,7.501-31.8223,0-49.6846-18.084-17.8623-18.0806-17.8623-51.1689,0-35.14,24.793-53.0186,24.791-17.8777,75.5518-19.522l37.2871-1.2329V377.74q0-21.7793-9.6631-32.5713-9.6636-10.7886-29.9668-10.7886a98.9142,98.9142,0,0,0-31.8213,5.1377,233.5611,233.5611,0,0,0-29.2842,12.124l-14.8369-34.5234a154.7192,154.7192,0,0,1,38.459-14.6929A168.6187,168.6187,0,0,1,1854.8,297.39q41.1885,0,62.1777,18.9063,20.9839,18.9089,20.9873,59.3887V528.78Zm-68.3281-32.88q24.9873,0,40.1182-14.6924,15.1274-14.6895,15.13-41.2021V420.2773l-27.7217,1.2334q-32.4082,1.2334-47.1465,11.4053-14.7422,10.1719-14.7393,31.1328,0,15.2095,8.59,23.5293Q1819.6577,495.9,1836.8389,495.9Z" transform="translate(-59.2384 -101.5071)"/></svg>