<svg xmlns="http://www.w3.org/2000/svg" id="Calque_1" data-name="Calque 1" viewBox="0 0 599.156 599.141"><title>Quanta-newlogo</title><path d="M229.5664,599.5156v23.5q0,52.875-52.8594,52.8594h-23.5q-52.875,0-52.875-52.8594v-23.5q0-52.8516,52.875-52.8594h23.5q41.1094,0,41.1094-41.125v-23.5q0-41.1094-41.1094-41.1094h-23.5q-52.875,0-52.875-52.875v-23.5q0-52.8516,52.875-52.8594h23.5q41.1094,0,41.1094-41.125V247.0781q0-41.1094-41.1094-41.125h-23.5q-52.875,0-52.875-52.8594v-23.5q0-52.8516,52.875-52.8594h23.5q52.8516,0,52.8594,52.8594v23.5q0,41.1094,41.125,41.1094h23.4844q52.875,0,52.875,52.875v23.4844q0,41.1328,41.1094,41.125h23.5q41.1094,0,41.125-41.125V247.0781q0-52.875,52.8594-52.875h23.5q41.1094,0,41.1094-41.1094v-23.5q0-52.8516,52.875-52.8594h23.5q52.8516,0,52.8594,52.8594v23.5q0,52.875-52.8594,52.8594h-23.5q-41.1328,0-41.125,41.125v23.4844q0,41.1328,41.125,41.125h23.5q52.8516,0,52.8594,52.8594v23.5q0,52.875-52.8594,52.875h-23.5q-41.1328,0-41.125,41.1094v23.5q0,41.1328,41.125,41.125h23.5q52.8516,0,52.8594,52.8594v23.5q0,52.875-52.8594,52.8594h-23.5q-52.875,0-52.875-52.8594v-23.5q0-41.1094-41.1094-41.125h-23.5q-52.875,0-52.8594-52.8594v-23.5q0-41.1094-41.125-41.1094h-23.5q-41.1094,0-41.1094,41.1094v23.5q0,52.875-52.875,52.8594H270.6914Q229.5586,558.3906,229.5664,599.5156Z" transform="translate(-100.332 -76.7344)"/></svg>