<svg id="Calque_2" data-name="Calque 2" xmlns="http://www.w3.org/2000/svg" xmlns:xlink="http://www.w3.org/1999/xlink" viewBox="0 0 2415.6396 599.1406"><defs><style>.cls-1{fill:none;}.cls-2{clip-path:url(#clip-path);}</style><clipPath id="clip-path" transform="translate(-88.332 -76.7363)"><rect class="cls-1" x="-12" width="800" height="800"/></clipPath></defs><title>Quanta-newlogotext</title><path d="M1161.84,361.8623q0,70.2085-25.4492,118.2393-25.4517,48.04-74.0908,67.5654l87.7559,99.501H1069.32L1000.1182,560.6H990.34q-82.9937,0-127.4966-51.8613-44.5085-51.8613-44.5049-147.4038,0-95.5393,44.7554-146.7432,44.7554-51.2,127.748-51.2021,81.7354,0,126.3682,51.9937Q1161.8364,267.38,1161.84,361.8623Zm-279.8159,0q0,71.26,27.33,108.0781,27.3252,36.8188,80.9858,36.8184,53.4053,0,80.61-36.4219,27.2021-36.4219,27.2041-108.4746,0-70.9937-26.9541-107.6821-26.9546-36.6819-80.3584-36.686-53.9121,0-81.3628,36.686Q882.0242,290.8679,882.0239,361.8623Z" transform="translate(-88.332 -76.7363)"/><path d="M1405.2236,555.3213l-8.2744-38.27H1393.94q-12.2886,20.3262-34.9775,31.9355-22.6948,11.61-51.7754,11.6123-50.3965,0-75.22-26.3926-24.8218-26.3892-24.8223-79.97v-190.82h59.4238V443.416q0,33.5215,13.0381,50.2783,13.0342,16.7637,40.8691,16.76,37.103,0,54.5332-23.3584,17.4243-23.3569,17.4258-78.2539V263.4175h59.1729V555.3213Z" transform="translate(-88.332 -76.7363)"/><path d="M1684.4619,555.3213l-11.7842-40.6445h-2.0059q-20.0625,26.66-40.3682,36.29-20.3086,9.6313-52.1523,9.6328-40.8706,0-63.8105-23.2256-22.9424-23.2207-22.9424-65.7178,0-45.1318,31.8428-68.0937,31.84-22.9607,97.0332-25.0728l47.89-1.5835V361.3345q0-27.9719-12.4111-41.832-12.4116-13.8567-38.4873-13.8564a127.049,127.049,0,0,0-40.8691,6.5981,300.0735,300.0735,0,0,0-37.6094,15.5718l-19.0557-44.34a198.7253,198.7253,0,0,1,49.3936-18.8706,216.5608,216.5608,0,0,1,50.6484-6.4663q52.9,0,79.8574,24.2813,26.95,24.2856,26.9531,76.2749v196.626Zm-87.7559-42.2285q32.0918,0,51.5254-18.8711,19.4268-18.8657,19.4316-52.917V415.9678l-35.6045,1.583q-41.6235,1.585-60.5508,14.6484-18.9346,13.0649-18.9307,39.9854,0,19.5337,11.0322,30.22Q1574.64,513.0933,1596.7061,513.0928Z" transform="translate(-88.332 -76.7363)"/><path d="M2028.1377,555.3213h-59.1729V375.8506q0-33.7808-12.9121-50.41-12.917-16.6274-40.9951-16.6274-37.3623,0-54.6592,23.2256-17.3,23.228-17.3,77.8589V555.3213h-58.9219V263.4175h46.1338l8.2744,38.27h3.0088q12.5347-20.8462,35.6035-32.1992,23.0654-11.3445,51.1494-11.3486,99.79,0,99.791,106.8906Z" transform="translate(-88.332 -76.7363)"/><path d="M2188.7793,510.4541a136.7442,136.7442,0,0,0,43.126-7.127V550.043q-9.7793,4.4912-25.1982,7.5215a165.42,165.42,0,0,1-31.9687,3.0352q-83.7451,0-83.7441-92.9023V310.3965h-37.86V282.9482L2093.752,260.25l20.0586-61.7588h36.3564v64.9258h78.98v46.979h-78.98V466.6416q0,22.4355,10.6563,33.123Q2171.4771,510.4536,2188.7793,510.4541Z" transform="translate(-88.332 -76.7363)"/><path d="M2461.85,555.3213l-11.7842-40.6445H2448.06q-20.0625,26.66-40.3682,36.29-20.3086,9.6313-52.1523,9.6328-40.8706,0-63.8105-23.2256-22.9424-23.2207-22.9424-65.7178,0-45.1318,31.8428-68.0937,31.84-22.9607,97.0332-25.0728l47.89-1.5835V361.3345q0-27.9719-12.4111-41.832-12.4116-13.8567-38.4873-13.8564a127.049,127.049,0,0,0-40.8691,6.5981,300.0734,300.0734,0,0,0-37.6094,15.5718l-19.0557-44.34a198.7252,198.7252,0,0,1,49.3936-18.8706,216.5608,216.5608,0,0,1,50.6484-6.4663q52.9,0,79.8574,24.2813,26.95,24.2856,26.9531,76.2749v196.626Zm-87.7559-42.2285q32.0918,0,51.5254-18.8711,19.4268-18.8657,19.4316-52.917V415.9678l-35.6045,1.583q-41.6235,1.585-60.5508,14.6484-18.9346,13.0649-18.9307,39.9854,0,19.5337,11.0322,30.22Q2352.0273,513.0933,2374.0938,513.0928Z" transform="translate(-88.332 -76.7363)"/><g class="cls-2"><g class="cls-2"><path d="M217.5664,599.5176v23.5q0,52.875-52.8594,52.8594h-23.5q-52.875,0-52.875-52.8594v-23.5q0-52.8516,52.875-52.8594h23.5q41.1094,0,41.1094-41.125v-23.5q0-41.1094-41.1094-41.1094h-23.5q-52.875,0-52.875-52.875v-23.5q0-52.8516,52.875-52.8594h23.5q41.1094,0,41.1094-41.125V247.08q0-41.1094-41.1094-41.125h-23.5q-52.875,0-52.875-52.8594v-23.5q0-52.8516,52.875-52.8594h23.5q52.8516,0,52.8594,52.8594v23.5q0,41.1094,41.125,41.1094h23.4844q52.875,0,52.875,52.875v23.4844q0,41.1328,41.1094,41.125h23.5q41.1094,0,41.125-41.125V247.08q0-52.875,52.8594-52.875h23.5q41.1094,0,41.1094-41.1094v-23.5q0-52.8516,52.875-52.8594h23.5q52.8516,0,52.8594,52.8594v23.5q0,52.875-52.8594,52.8594h-23.5q-41.1328,0-41.125,41.125v23.4844q0,41.1328,41.125,41.125h23.5q52.8516,0,52.8594,52.8594v23.5q0,52.875-52.8594,52.875h-23.5q-41.1328,0-41.125,41.1094v23.5q0,41.1328,41.125,41.125h23.5q52.8516,0,52.8594,52.8594v23.5q0,52.875-52.8594,52.8594h-23.5q-52.875,0-52.875-52.8594v-23.5q0-41.1094-41.1094-41.125h-23.5q-52.875,0-52.8594-52.8594v-23.5q0-41.1094-41.125-41.1094h-23.5q-41.1094,0-41.1094,41.1094v23.5q0,52.875-52.875,52.8594H258.6914Q217.5586,558.3926,217.5664,599.5176Z" transform="translate(-88.332 -76.7363)"/></g></g></svg>