<svg xmlns="http://www.w3.org/2000/svg" width="2763" height="995" version="1.2" viewBox="0 0 2763 995"><defs><linearGradient id="P" gradientUnits="userSpaceOnUse"/><linearGradient id="g1" x1="885.7" x2="1877.3" y1="18.2" y2="975.8" href="#P"><stop stop-color="#30e3ca"/><stop offset="1" stop-color="#007060"/></linearGradient><clipPath id="cp1" clipPathUnits="userSpaceOnUse"><path d="m162 197h800v800h-800z"/></clipPath><clipPath id="cp2" clipPathUnits="userSpaceOnUse"><path d="m162 197h800v800h-800z"/></clipPath></defs><style>.a{fill:url(#g1)}</style><path d="m18.6 60.2c0-23.1 18.8-42 42-42h2641.8c23.2 0 42 18.9 42 42v873.6c0 23.1-18.8 42-42 42h-2641.8c-23.2 0-42-18.9-42-42z" class="a"/><path fill-rule="evenodd" d="m1247.5 482.1q0 70.2-25.4 118.3-25.5 48-74.1 67.5l87.7 99.5h-80.7l-69.2-86.5h-9.8q-83 0-127.5-51.9-44.5-51.9-44.5-147.4 0-95.5 44.8-146.7 44.7-51.2 127.7-51.2 81.7 0 126.4 51.9 44.6 52 44.6 146.5zm-279.8 0q0 71.3 27.3 108.1 27.3 36.8 81 36.8 53.4 0 80.6-36.4 27.2-36.4 27.2-108.5 0-71-26.9-107.7-27-36.6-80.4-36.6-53.9 0-81.4 36.6-27.4 36.7-27.4 107.7z"/><path d="m1490.9 675.6l-8.3-38.3h-3q-12.3 20.3-35 32-22.7 11.6-51.7 11.6-50.4 0-75.3-26.4-24.8-26.4-24.8-80v-190.8h59.4v180q0 33.5 13.1 50.3 13 16.7 40.8 16.7 37.1 0 54.6-23.3 17.4-23.4 17.4-78.3v-145.4h59.2v291.9z"/><path fill-rule="evenodd" d="m1770.1 675.6l-11.8-40.7h-2q-20 26.7-40.3 36.3-20.3 9.7-52.2 9.7-40.9 0-63.8-23.3-22.9-23.2-22.9-65.7 0-45.1 31.8-68.1 31.8-22.9 97-25l47.9-1.6v-15.6q0-28-12.4-41.8-12.4-13.9-38.5-13.9-5.2 0-10.4 0.4-5.1 0.4-10.3 1.2-5.1 0.9-10.2 2.1-5 1.3-9.9 2.9-4.9 1.6-9.6 3.4-4.8 1.8-9.5 3.8-4.7 1.9-9.3 4-4.7 2.1-9.2 4.4l-19.1-44.4q5.8-3.1 11.8-5.9 6.1-2.8 12.3-5.1 6.2-2.4 12.5-4.4 6.3-1.9 12.8-3.4 6.2-1.6 12.5-2.8 6.3-1.2 12.6-2 6.4-0.8 12.8-1.2 6.3-0.4 12.7-0.5 52.9 0 79.9 24.3 26.9 24.3 27 76.3v196.6zm-87.8-42.2q32.1 0 51.5-18.9 19.4-18.9 19.5-52.9v-25.4l-35.7 1.6q-41.6 1.6-60.5 14.7-18.9 13-18.9 39.9 0 19.6 11 30.3 11 10.7 33.1 10.7z"/><path d="m2113.8 675.6h-59.2v-179.5q0-33.8-12.9-50.4-12.9-16.6-41-16.6-37.3 0-54.6 23.2-17.3 23.2-17.3 77.9v145.4h-59v-291.9h46.2l8.3 38.3h3q12.5-20.9 35.6-32.2 23-11.4 51.1-11.4 99.8 0 99.8 106.9z"/><path d="m2274.4 630.7q5.5 0 11-0.5 5.5-0.4 10.9-1.3 5.4-0.9 10.7-2.2 5.4-1.4 10.6-3.1v46.7q-9.8 4.5-25.2 7.5-4 0.8-8 1.4-3.9 0.5-7.9 0.9-4 0.4-8.1 0.6-4 0.2-8 0.2-83.7 0-83.7-92.9v-157.3h-37.9v-27.5l40.6-22.7 20.1-61.7h36.3v64.9h79v47h-79v156.2q0 22.4 10.7 33.1 10.6 10.7 27.9 10.7z"/><path fill-rule="evenodd" d="m2547.5 675.6l-11.8-40.7h-2q-20 26.7-40.3 36.3-20.3 9.7-52.2 9.7-40.9 0-63.8-23.3-22.9-23.2-22.9-65.7 0-45.1 31.8-68.1 31.8-22.9 97-25l47.9-1.6v-15.6q0-28-12.4-41.8-12.4-13.9-38.5-13.9-5.2 0-10.4 0.4-5.1 0.4-10.3 1.2-5.1 0.9-10.2 2.1-5 1.3-9.9 2.9-4.9 1.6-9.6 3.4-4.8 1.8-9.5 3.8-4.7 1.9-9.4 4-4.6 2.1-9.2 4.4l-19-44.4q5.8-3.1 11.8-5.9 6.1-2.8 12.3-5.1 6.1-2.4 12.5-4.4 6.3-1.9 12.8-3.4 6.2-1.6 12.5-2.8 6.3-1.2 12.6-2 6.4-0.8 12.7-1.2 6.4-0.4 12.8-0.5 52.9 0 79.9 24.3 26.9 24.3 26.9 76.3v196.6zm-87.7-42.2q32.1 0 51.5-18.9 19.4-18.9 19.4-52.9v-25.4l-35.6 1.6q-41.6 1.6-60.5 14.7-18.9 13-18.9 39.9 0 19.6 11 30.3 11 10.7 33.1 10.7z"/><g clip-path="url(#cp1)"><g clip-path="url(#cp2)"><path d="m303.2 719.8v23.5q0 52.9-52.8 52.8h-23.5q-52.9 0-52.9-52.8v-23.5q0-52.9 52.9-52.9h23.5q41.1 0 41.1-41.1v-23.5q0-41.1-41.1-41.1h-23.5q-52.9 0-52.9-52.9v-23.5q0-52.8 52.9-52.8h23.5q41.1 0 41.1-41.2v-23.5q0-41.1-41.1-41.1h-23.5q-52.9 0-52.9-52.8v-23.5q0-52.9 52.9-52.9h23.5q52.8 0 52.8 52.9v23.5q0 41.1 41.2 41.1h23.4q52.9 0 52.9 52.8v23.5q0 41.2 41.1 41.2h23.5q41.1 0 41.2-41.2v-23.5q0-52.8 52.8-52.8h23.5q41.1 0 41.1-41.1v-23.5q0-52.9 52.9-52.9h23.5q52.8 0 52.9 52.9v23.5q0 52.8-52.9 52.8h-23.5q-41.1 0-41.1 41.1v23.5q0 41.2 41.1 41.2h23.5q52.8 0 52.9 52.8v23.5q0 52.9-52.9 52.9h-23.5q-41.1 0-41.1 41.1v23.5q0 41.1 41.1 41.1h23.5q52.8 0 52.9 52.9v23.5q0 52.9-52.9 52.8h-23.5q-52.9 0-52.9-52.8v-23.5q0-41.1-41.1-41.1h-23.5q-52.9 0-52.8-52.9v-23.5q0-41.1-41.2-41.1h-23.5q-41.1 0-41.1 41.1v23.5q0 52.9-52.9 52.9h-23.4q-41.2 0-41.2 41.1z"/></g></g></svg>