<svg xmlns="http://www.w3.org/2000/svg" xmlns:xlink="http://www.w3.org/1999/xlink" id="Calque_1" x="0" y="0" version="1.1" viewBox="0 0 2904 995" style="enable-background:new 0 0 2904 995" xml:space="preserve"><style type="text/css">.st0{fill:url(#SVGID_1_)}.st1{clip-path:url(#SVGID_3_)}.st2{clip-path:url(#SVGID_5_)}</style><linearGradient id="SVGID_1_" x1="881.841" x2="882.562" y1="998.09" y2="996.906" gradientTransform="matrix(2725.8 0 0 -957.6 -2403255 955701)" gradientUnits="userSpaceOnUse"><stop offset=".29" style="stop-color:#30e3ca"/><stop offset="1" style="stop-color:#2c8a8e"/></linearGradient><path d="M18.6,60.2c0-23.1,19.7-42,44.1-42h2774.2c24.4,0,44.1,18.9,44.1,42v873.6c0,23.1-19.7,42-44.1,42H62.7	c-24.4,0-44.1-18.9-44.1-42L18.6,60.2z" class="st0"/><g><defs><rect id="SVGID_2_" width="800" height="800" x="162" y="197"/></defs><clipPath id="SVGID_3_"><use xlink:href="#SVGID_2_" style="overflow:visible"/></clipPath><g class="st1"><g><defs><rect id="SVGID_4_" width="800" height="800" x="162" y="197"/></defs><clipPath id="SVGID_5_"><use xlink:href="#SVGID_4_" style="overflow:visible"/></clipPath><g class="st2"><path d="M303.2,719.8v23.5c0,35.3-17.6,52.9-52.8,52.8h-23.5c-35.3,0-52.9-17.6-52.9-52.8v-23.5c0-35.3,17.6-52.9,52.9-52.9 h23.5c27.4,0,41.1-13.7,41.1-41.1v-23.5c0-27.4-13.7-41.1-41.1-41.1h-23.5c-35.3,0-52.9-17.6-52.9-52.9v-23.5 c0-35.2,17.6-52.8,52.9-52.8h23.5c27.4,0,41.1-13.7,41.1-41.2v-23.5c0-27.4-13.7-41.1-41.1-41.1h-23.5 c-35.3,0-52.9-17.6-52.9-52.8v-23.5c0-35.3,17.6-52.9,52.9-52.9h23.5c35.2,0,52.8,17.6,52.8,52.9v23.5 c0,27.4,13.7,41.1,41.2,41.1h23.4c35.3,0,52.9,17.6,52.9,52.8v23.5c0,27.5,13.7,41.2,41.1,41.2h23.5c27.4,0,41.1-13.7,41.2-41.2 v-23.5c0-35.2,17.6-52.8,52.8-52.8h23.5c27.4,0,41.1-13.7,41.1-41.1v-23.5c0-35.3,17.6-52.9,52.9-52.9h23.5 c35.2,0,52.8,17.6,52.9,52.9v23.5c0,35.2-17.6,52.8-52.9,52.8h-23.5c-27.4,0-41.1,13.7-41.1,41.1v23.5 c0,27.5,13.7,41.2,41.1,41.2h23.5c35.2,0,52.8,17.6,52.9,52.8v23.5c0,35.3-17.6,52.9-52.9,52.9h-23.5 c-27.4,0-41.1,13.7-41.1,41.1v23.5c0,27.4,13.7,41.1,41.1,41.1h23.5c35.2,0,52.8,17.6,52.9,52.9v23.5 c0,35.3-17.6,52.9-52.9,52.8h-23.5c-35.3,0-52.9-17.6-52.9-52.8v-23.5c0-27.4-13.7-41.1-41.1-41.1h-23.5 c-35.3,0-52.9-17.6-52.8-52.9v-23.5c0-27.4-13.7-41.1-41.2-41.1h-23.5c-27.4,0-41.1,13.7-41.1,41.1v23.5 c0,35.3-17.6,52.9-52.9,52.9h-23.4C316.9,678.7,303.2,692.4,303.2,719.8L303.2,719.8z"/></g></g></g></g><g><path d="M1185.5,643.4l-28.8-33.4c-13.2,9.5-27.4,16.9-42.7,22.3c-15.3,5.3-31.1,8-47.4,8c-19.9,0-38.1-4-54.5-11.9 c-16.5-7.9-30.3-18.8-41.6-32.8c-11.3-13.9-19.4-30.1-24.4-48.6c-5-18.5-6-38.2-3-59.2c2.9-21,9.5-40.7,19.5-59.1 c10.1-18.4,22.8-34.6,38.1-48.6c15.3-14,32.3-25,50.9-32.9c18.6-7.9,37.9-11.9,57.8-11.9c20,0,38.2,4,54.6,11.9 c16.4,7.9,30.2,18.9,41.5,32.9c11.3,14,19.4,30.2,24.4,48.6c5,18.4,6,38.1,3,59.1c-2.4,17.1-7.2,33.3-14.5,48.6 c-7.3,15.3-16.3,29.4-27.1,42.1l29.4,34L1185.5,643.4z M1073,596.6c9.7,0,19.4-1.6,29.2-4.8c9.8-3.2,18.9-7.8,27.3-13.7l-27.9-32.3 l35.3-31.1l26.7,31.3c6.9-8.4,12.5-17.6,17-27.5c4.5-9.9,7.4-20.2,8.8-30.7c2.1-15,1.4-29-2-42.1c-3.4-13.1-9.1-24.6-16.9-34.7 c-7.8-10-17.5-17.9-28.9-23.5c-11.4-5.7-24-8.5-37.9-8.5c-14,0-27.5,2.9-40.6,8.6c-13.1,5.7-25,13.6-35.6,23.6 c-10.6,10-19.5,21.6-26.7,34.7c-7.1,13.1-11.8,27.1-13.9,41.9c-2,15-1.3,29.1,2.1,42.2c3.4,13.2,9,24.8,16.9,34.8 c7.9,10,17.6,17.8,29.1,23.4C1046.4,593.8,1059.1,596.6,1073,596.6z"/><path d="M1244.1,557.1l18.3-131.3h43.7l-17,120.6c-1.3,9.4-0.1,17.9,3.4,25.6c3.5,7.7,8.8,13.8,15.9,18.4 c7.1,4.6,15.2,6.8,24.5,6.8c9.4,0,18.3-2.3,26.7-6.8c8.4-4.5,15.4-10.7,21-18.4c5.6-7.7,9-16.2,10.3-25.6l16.8-120.6h43.7 l-29.2,210h-43.7l2.9-22.7c-8.4,8.7-18.3,15.5-29.6,20.6c-11.3,5-23.1,7.6-35.3,7.6c-15.5,0-29.2-3.8-40.9-11.3 c-11.7-7.6-20.4-17.7-26.1-30.5C1243.6,586.8,1241.9,572.6,1244.1,557.1z"/><path d="M1640.7,425.8h43.7l-29.4,210H1611l2.5-30.5c-7.7,10.8-17.3,19.5-28.7,26c-11.4,6.6-24.3,9.9-38.5,9.9 c-15.4,0-29.5-2.9-42.2-8.7c-12.7-5.8-23.5-13.9-32.3-24.3c-8.8-10.4-15.2-22.3-19.1-35.8c-3.9-13.5-4.8-28-2.5-43.6 c2.1-15,6.9-29.1,14.4-42.3c7.5-13.2,16.9-24.8,28.1-34.8c11.3-9.9,23.9-17.7,37.8-23.4c13.9-5.7,28.4-8.5,43.4-8.5 c15.3,0,28.2,3.5,39,10.4s19.1,15.8,25.3,26.6L1640.7,425.8z M1551.2,599.1c12.3,0,23.5-3,33.6-9.1s18.4-14.3,25.1-24.7 c6.6-10.4,10.8-21.8,12.5-34.4c1.8-12.7,0.9-24.3-2.8-34.7c-3.7-10.4-9.8-18.6-18.2-24.7c-8.4-6.1-18.7-9.1-30.9-9.1 c-12.2,0-23.7,3.1-34.7,9.2c-10.9,6.2-20.1,14.4-27.4,24.8c-7.4,10.4-11.9,21.8-13.8,34.4c-1.7,12.7-0.3,24.3,4.2,34.5 c4.5,10.3,11.3,18.5,20.6,24.6C1528.7,596,1539.3,599.1,1551.2,599.1z"/><path d="M1890.8,504.1l-18.5,131.7h-43.7l17-121c1.4-9.4,0.3-17.9-3.3-25.6c-3.6-7.7-8.9-13.8-15.9-18.4c-7-4.5-15.2-6.8-24.6-6.8 c-9.4,0-18.2,2.3-26.6,6.8c-8.3,4.6-15.3,10.7-20.9,18.4c-5.6,7.7-9.1,16.2-10.5,25.6l-17,121h-43.7l29.4-210h43.7l-2.9,22.3 c8.4-8.7,18.3-15.5,29.6-20.6c11.3-5,23.2-7.6,35.5-7.6c15.5,0,29.1,3.8,40.7,11.3c11.6,7.6,20.3,17.7,26.1,30.5 C1891.2,474.5,1893,488.6,1890.8,504.1z"/><path d="M2035.1,469.5H1991l-23.5,166.3h-43.7l23.5-166.3h-33.4l6.1-43.7h33.4l9-65.9h43.7l-9,65.9h44.1L2035.1,469.5z"/><path d="M2223.7,425.8h43.7l-29.4,210h-43.9l2.5-30.5c-7.7,10.8-17.3,19.5-28.7,26c-11.4,6.6-24.3,9.9-38.5,9.9 c-15.4,0-29.5-2.9-42.2-8.7c-12.7-5.8-23.5-13.9-32.3-24.3c-8.8-10.4-15.2-22.3-19.1-35.8c-3.9-13.5-4.8-28-2.5-43.6 c2.1-15,6.9-29.1,14.4-42.3c7.5-13.2,16.9-24.8,28.1-34.8c11.3-9.9,23.9-17.7,37.8-23.4c13.9-5.7,28.4-8.5,43.4-8.5 c15.3,0,28.2,3.5,39,10.4s19.1,15.8,25.3,26.6L2223.7,425.8z M2134.2,599.1c12.3,0,23.5-3,33.6-9.1s18.4-14.3,25.1-24.7 c6.6-10.4,10.8-21.8,12.5-34.4c1.8-12.7,0.9-24.3-2.8-34.7c-3.7-10.4-9.8-18.6-18.2-24.7c-8.4-6.1-18.7-9.1-30.9-9.1 c-12.2,0-23.7,3.1-34.7,9.2c-10.9,6.2-20.1,14.4-27.4,24.8c-7.4,10.4-11.9,21.8-13.8,34.4c-1.7,12.7-0.3,24.3,4.2,34.5 c4.5,10.3,11.3,18.5,20.6,24.6C2111.7,596,2122.3,599.1,2134.2,599.1z"/><path d="M2266.5,635.8l179.4-250.3h-161.3l6.1-43.7h211.9l-6.1,43.7l-179.8,250.3H2266.5z"/><path d="M2569.6,641.3c-18.6,0-34.8-4.5-48.5-13.5c-13.7-9-23.9-21.1-30.6-36.1c-6.7-15-8.8-31.5-6.4-49.5h43.7 c-1.4,10.2-0.2,19.5,3.6,27.9c3.8,8.4,9.6,15.1,17.3,20.1c7.8,5,16.8,7.5,27,7.5c10.1,0,19.7-2.5,28.8-7.5c9.1-5,16.8-11.7,23-20.1 c6.2-8.4,10-17.7,11.4-27.9c1.5-10.2,0.6-19.6-2.8-28c-3.4-8.5-9.4-15.3-18-20.4c-8.5-5.1-20-7.7-34.2-7.7h-74.1l50-144.3h142.2 l-6.1,43.7h-106.7l-19.3,56.9l25.2,0.4c20,0.4,37,5,50.9,13.8c13.9,8.8,24.2,20.5,30.8,35.3c6.6,14.8,8.5,31.5,5.9,50.3 c-2,13.6-6.3,26.4-13.1,38.3c-6.8,12-15.4,22.5-25.7,31.6c-10.4,9.1-21.9,16.2-34.5,21.4C2596.5,638.7,2583.3,641.3,2569.6,641.3z"/></g></svg>